<svg width="500" height="400" viewBox="0 0 500 400" xmlns="http://www.w3.org/2000/svg">
  <defs>
    <linearGradient id="buildingGradient" x1="0%" y1="0%" x2="100%" y2="100%">
      <stop offset="0%" style="stop-color:#0d9488;stop-opacity:1" />
      <stop offset="100%" style="stop-color:#0f766e;stop-opacity:1" />
    </linearGradient>
  </defs>
  
  <!-- Background -->
  <rect width="500" height="400" fill="#f0f9ff"/>
  
  <!-- Building -->
  <rect x="150" y="150" width="200" height="200" fill="url(#buildingGradient)" rx="8"/>
  
  <!-- Windows -->
  <rect x="170" y="170" width="30" height="30" fill="#bfdbfe" rx="4"/>
  <rect x="210" y="170" width="30" height="30" fill="#bfdbfe" rx="4"/>
  <rect x="250" y="170" width="30" height="30" fill="#bfdbfe" rx="4"/>
  <rect x="290" y="170" width="30" height="30" fill="#bfdbfe" rx="4"/>
  
  <rect x="170" y="220" width="30" height="30" fill="#bfdbfe" rx="4"/>
  <rect x="210" y="220" width="30" height="30" fill="#bfdbfe" rx="4"/>
  <rect x="250" y="220" width="30" height="30" fill="#bfdbfe" rx="4"/>
  <rect x="290" y="220" width="30" height="30" fill="#bfdbfe" rx="4"/>
  
  <!-- Door -->
  <rect x="220" y="290" width="60" height="60" fill="#1e40af" rx="4"/>
  <circle cx="265" cy="320" r="3" fill="#fbbf24"/>
  
  <!-- Sign -->
  <rect x="180" y="120" width="140" height="25" fill="#1e40af" rx="4"/>
  <text x="250" y="137" font-family="Arial, sans-serif" font-size="12" font-weight="bold" fill="white" text-anchor="middle">MOHIT COMPUTERS</text>
  
  <!-- People -->
  <circle cx="100" cy="280" r="15" fill="#fbbf24"/>
  <rect x="90" y="295" width="20" height="40" fill="#3b82f6" rx="4"/>
  <rect x="85" y="305" width="10" height="25" fill="#1e40af" rx="2"/>
  <rect x="105" y="305" width="10" height="25" fill="#1e40af" rx="2"/>
  
  <circle cx="400" cy="290" r="15" fill="#fbbf24"/>
  <rect x="390" y="305" width="20" height="40" fill="#ef4444" rx="4"/>
  <rect x="385" y="315" width="10" height="25" fill="#dc2626" rx="2"/>
  <rect x="405" y="315" width="10" height="25" fill="#dc2626" rx="2"/>
  
  <!-- Years Badge -->
  <circle cx="80" cy="80" r="40" fill="#10b981"/>
  <text x="80" y="75" font-family="Arial, sans-serif" font-size="16" font-weight="bold" fill="white" text-anchor="middle">19+</text>
  <text x="80" y="90" font-family="Arial, sans-serif" font-size="8" fill="white" text-anchor="middle">YEARS</text>
</svg>

