<svg width="500" height="350" viewBox="0 0 500 350" xmlns="http://www.w3.org/2000/svg">
  <defs>
    <linearGradient id="blogGradient" x1="0%" y1="0%" x2="100%" y2="100%">
      <stop offset="0%" style="stop-color:#0d9488;stop-opacity:1" />
      <stop offset="100%" style="stop-color:#0f766e;stop-opacity:1" />
    </linearGradient>
  </defs>
  
  <!-- Background -->
  <rect width="500" height="350" fill="#f0fdfa"/>
  
  <!-- Blog Articles -->
  <rect x="50" y="50" width="180" height="120" rx="12" fill="white" stroke="#e5e7eb" stroke-width="2"/>
  <rect x="60" y="60" width="160" height="60" rx="8" fill="url(#blogGradient)"/>
  <rect x="60" y="130" width="120" height="8" rx="4" fill="#d1d5db"/>
  <rect x="60" y="145" width="80" height="6" rx="3" fill="#d1d5db"/>
  
  <rect x="270" y="50" width="180" height="120" rx="12" fill="white" stroke="#e5e7eb" stroke-width="2"/>
  <rect x="280" y="60" width="160" height="60" rx="8" fill="#3b82f6"/>
  <rect x="280" y="130" width="140" height="8" rx="4" fill="#d1d5db"/>
  <rect x="280" y="145" width="100" height="6" rx="3" fill="#d1d5db"/>
  
  <rect x="50" y="200" width="180" height="120" rx="12" fill="white" stroke="#e5e7eb" stroke-width="2"/>
  <rect x="60" y="210" width="160" height="60" rx="8" fill="#ef4444"/>
  <rect x="60" y="280" width="100" height="8" rx="4" fill="#d1d5db"/>
  <rect x="60" y="295" width="120" height="6" rx="3" fill="#d1d5db"/>
  
  <rect x="270" y="200" width="180" height="120" rx="12" fill="white" stroke="#e5e7eb" stroke-width="2"/>
  <rect x="280" y="210" width="160" height="60" rx="8" fill="#8b5cf6"/>
  <rect x="280" y="280" width="110" height="8" rx="4" fill="#d1d5db"/>
  <rect x="280" y="295" width="90" height="6" rx="3" fill="#d1d5db"/>
  
  <!-- Reading Icon -->
  <circle cx="400" cy="120" r="25" fill="#fbbf24"/>
  <rect x="390" y="110" width="20" height="15" rx="2" fill="white"/>
  <rect x="392" y="115" width="16" height="2" rx="1" fill="#fbbf24"/>
  <rect x="392" y="119" width="12" height="2" rx="1" fill="#fbbf24"/>
</svg>

