<svg width="500" height="400" viewBox="0 0 500 400" xmlns="http://www.w3.org/2000/svg">
  <defs>
    <linearGradient id="qualityGradient" x1="0%" y1="0%" x2="100%" y2="100%">
      <stop offset="0%" style="stop-color:#0d9488;stop-opacity:1" />
      <stop offset="100%" style="stop-color:#0f766e;stop-opacity:1" />
    </linearGradient>
  </defs>
  
  <!-- Background -->
  <rect width="500" height="400" fill="#f0fdfa"/>
  
  <!-- Main Laptop -->
  <rect x="150" y="120" width="200" height="140" rx="12" fill="url(#qualityGradient)"/>
  <rect x="165" y="135" width="170" height="110" rx="8" fill="#1e293b"/>
  
  <!-- Screen Content -->
  <rect x="180" y="150" width="40" height="6" rx="3" fill="#10b981"/>
  <rect x="180" y="165" width="80" height="4" rx="2" fill="#64748b"/>
  <rect x="180" y="175" width="60" height="4" rx="2" fill="#64748b"/>
  <rect x="180" y="185" width="70" height="4" rx="2" fill="#64748b"/>
  
  <rect x="280" y="150" width="50" height="40" rx="4" fill="#3b82f6"/>
  <rect x="180" y="210" width="140" height="3" rx="1" fill="#64748b"/>
  <rect x="180" y="220" width="100" height="3" rx="1" fill="#64748b"/>
  
  <!-- Keyboard -->
  <rect x="165" y="270" width="170" height="15" rx="3" fill="#4b5563"/>
  
  <!-- Quality Badges -->
  <circle cx="100" cy="100" r="30" fill="#10b981"/>
  <text x="100" y="95" font-family="Arial, sans-serif" font-size="16" font-weight="bold" fill="white" text-anchor="middle">✓</text>
  <text x="100" y="110" font-family="Arial, sans-serif" font-size="8" fill="white" text-anchor="middle">QUALITY</text>
  
  <circle cx="400" cy="100" r="30" fill="#3b82f6"/>
  <text x="400" y="95" font-family="Arial, sans-serif" font-size="16" font-weight="bold" fill="white" text-anchor="middle">⚡</text>
  <text x="400" y="110" font-family="Arial, sans-serif" font-size="8" fill="white" text-anchor="middle">TESTED</text>
  
  <circle cx="100" cy="300" r="30" fill="#ef4444"/>
  <text x="100" y="295" font-family="Arial, sans-serif" font-size="16" font-weight="bold" fill="white" text-anchor="middle">🛡️</text>
  <text x="100" y="310" font-family="Arial, sans-serif" font-size="8" fill="white" text-anchor="middle">WARRANTY</text>
  
  <circle cx="400" cy="300" r="30" fill="#8b5cf6"/>
  <text x="400" y="295" font-family="Arial, sans-serif" font-size="16" font-weight="bold" fill="white" text-anchor="middle">💎</text>
  <text x="400" y="310" font-family="Arial, sans-serif" font-size="8" fill="white" text-anchor="middle">PREMIUM</text>
  
  <!-- Connection Lines -->
  <line x1="130" y1="100" x2="150" y2="150" stroke="#d1d5db" stroke-width="2" stroke-dasharray="5,5"/>
  <line x1="370" y1="100" x2="350" y2="150" stroke="#d1d5db" stroke-width="2" stroke-dasharray="5,5"/>
  <line x1="130" y1="300" x2="150" y2="250" stroke="#d1d5db" stroke-width="2" stroke-dasharray="5,5"/>
  <line x1="370" y1="300" x2="350" y2="250" stroke="#d1d5db" stroke-width="2" stroke-dasharray="5,5"/>
</svg>

